<svg version="1.1" xmlns="http://www.w3.org/2000/svg" viewBox="0 0 3155.6509846278605 1305.378458901057" width="3155.6509846278605" height="1305.378458901057">
  <!-- svg-source:excalidraw -->
  
  <defs>
    <style class="style-fonts">
      @font-face {
        font-family: "Virgil";
        src: url("https://excalidraw.com/Virgil.woff2");
      }
      @font-face {
        font-family: "Cascadia";
        src: url("https://excalidraw.com/Cascadia.woff2");
      }
    </style>
  </defs>
  <rect x="0" y="0" width="3155.6509846278605" height="1305.378458901057" fill="#ffffff"></rect><g transform="translate(120.0925332932245 10) rotate(0 429.5 157.5)"><text x="0" y="25" font-family="Virgil, Segoe UI Emoji" font-size="28px" fill="#000000" text-anchor="start" style="white-space: pre;" direction="ltr">Tasks List:</text><text x="0" y="60" font-family="Virgil, Segoe UI Emoji" font-size="28px" fill="#000000" text-anchor="start" style="white-space: pre;" direction="ltr">1. create an ordered list to store the count of the barcodes</text><text x="0" y="95" font-family="Virgil, Segoe UI Emoji" font-size="28px" fill="#000000" text-anchor="start" style="white-space: pre;" direction="ltr">    - aggregate the barcodes</text><text x="0" y="130" font-family="Virgil, Segoe UI Emoji" font-size="28px" fill="#000000" text-anchor="start" style="white-space: pre;" direction="ltr">2. generate the summary of the receipt with the ordered list</text><text x="0" y="165" font-family="Virgil, Segoe UI Emoji" font-size="28px" fill="#000000" text-anchor="start" style="white-space: pre;" direction="ltr">    - retrieve data from the database</text><text x="0" y="200" font-family="Virgil, Segoe UI Emoji" font-size="28px" fill="#000000" text-anchor="start" style="white-space: pre;" direction="ltr">    - stringify the information of each barcode</text><text x="0" y="235" font-family="Virgil, Segoe UI Emoji" font-size="28px" fill="#000000" text-anchor="start" style="white-space: pre;" direction="ltr">    - calculate the total</text><text x="0" y="270" font-family="Virgil, Segoe UI Emoji" font-size="28px" fill="#000000" text-anchor="start" style="white-space: pre;" direction="ltr"> 3. printReceipt</text><text x="0" y="305" font-family="Virgil, Segoe UI Emoji" font-size="28px" fill="#000000" text-anchor="start" style="white-space: pre;" direction="ltr">  </text></g><g stroke-linecap="round" transform="translate(308.6296700371635 470.78580753386984) rotate(0 202.66668701171872 412.2963256835936)"><path d="M-0.21 -1.03 C129.61 -2.55, 257.99 -1.8, 405.07 0.77 M0.48 -0.48 C84.94 -0.71, 170.59 0, 405.25 0.13 M404.87 -0.39 C407.41 251.3, 407.95 502.86, 405.28 824.61 M405.31 -0.32 C405.96 170.53, 405.52 340.66, 405.13 824.58 M404.22 825.26 C285.58 826.81, 167.13 826.86, 0.76 824.38 M404.96 825.03 C242.82 824.47, 81.35 824.06, -0.46 824.31 M0.2 824.85 C-1.36 617.99, -1.61 411.35, 0.49 -0.58 M-0.02 824.44 C2.66 569.11, 2.67 313.95, -0.21 0.36" stroke="#000000" stroke-width="1" fill="none"></path></g><g transform="translate(491.0000330607096 904.4523402622766) rotate(0 81 17.5)"><text x="0" y="25" font-family="Virgil, Segoe UI Emoji" font-size="28px" fill="#000000" text-anchor="start" style="white-space: pre;" direction="ltr">printReceipt</text></g><g stroke-linecap="round"><g transform="translate(55.9607625520228 697.5449899340431) rotate(0 123.79160693831123 1.4538361082272786)"><path d="M-0.15 -0.79 C41.41 -0.3, 207.79 1.65, 249.27 2.48 M-1.69 1.41 C39.71 2.09, 206.71 3.53, 248.27 3.7" stroke="#000000" stroke-width="1" fill="none"></path></g><g transform="translate(55.9607625520228 697.5449899340431) rotate(0 123.79160693831123 1.4538361082272786)"><path d="M218.69 13.59 C227.34 9.79, 238.51 6.45, 247.95 2.19 M219.05 14.31 C226.34 11.97, 234.76 9.77, 247.32 3.67" stroke="#000000" stroke-width="1" fill="none"></path></g><g transform="translate(55.9607625520228 697.5449899340431) rotate(0 123.79160693831123 1.4538361082272786)"><path d="M218.83 -6.93 C227.37 -4.69, 238.49 -1.99, 247.95 2.19 M219.19 -6.21 C226.29 -3.32, 234.67 -0.29, 247.32 3.67" stroke="#000000" stroke-width="1" fill="none"></path></g></g><g transform="translate(10 641.0450221470422) rotate(0 153 17.5)"><text x="0" y="25" font-family="Virgil, Segoe UI Emoji" font-size="28px" fill="#000000" text-anchor="start" style="white-space: pre;" direction="ltr">barcodes: List&lt;String&gt;</text></g><g stroke-linecap="round"><g transform="translate(293.7592417399087 1079.411621211811) rotate(0 -133.71570036042476 3.832281234300922)"><path d="M-0.52 0.59 C-45.17 1.54, -223.23 5.69, -267.78 6.88 M1.4 -0.14 C-43.42 1.42, -223.8 6.3, -268.83 7.81" stroke="#000000" stroke-width="1" fill="none"></path></g><g transform="translate(293.7592417399087 1079.411621211811) rotate(0 -133.71570036042476 3.832281234300922)"><path d="M-239.97 -3.61 C-251.3 -0.48, -258.38 4.35, -270.32 6.3 M-240.61 -3.25 C-246.96 -0.33, -253.5 1.3, -268.8 8.3" stroke="#000000" stroke-width="1" fill="none"></path></g><g transform="translate(293.7592417399087 1079.411621211811) rotate(0 -133.71570036042476 3.832281234300922)"><path d="M-239.36 16.9 C-251.08 13.76, -258.34 12.33, -270.32 6.3 M-239.99 17.26 C-246.53 15.54, -253.21 12.54, -268.8 8.3" stroke="#000000" stroke-width="1" fill="none"></path></g></g><g transform="translate(85.6666590372721 1032.1190883091517) rotate(0 96 17.5)"><text x="0" y="25" font-family="Virgil, Segoe UI Emoji" font-size="28px" fill="#000000" text-anchor="start" style="white-space: pre;" direction="ltr">receipt: string</text></g><g stroke-linecap="round" transform="translate(1395.7406743367515 470.69322567894346) rotate(0 262.40743001302076 54.66668701171875)"><path d="M-0.05 0.16 C138.47 0.24, 275.88 -0.01, 524.82 -0.44 M-0.28 0.37 C181.95 -1.34, 363.78 -1.73, 525.16 -0.08 M522.98 -1.94 C524.4 30.95, 523.19 61.51, 526.24 109.47 M525.09 0 C523.73 25.28, 524.53 49.28, 525.56 109.7 M524.88 109.33 C410.53 107.09, 296.42 107.02, -0.43 108.84 M525.12 109.23 C366.61 110.7, 208.38 110.76, -0.02 109.59 M0.53 108.15 C1.08 86.67, -2.1 60.35, 1.66 0.23 M-0.39 108.57 C0.23 68.84, 0.58 28.37, -0.82 0.44" stroke="#000000" stroke-width="1" fill="none"></path></g><g transform="translate(1513.0833935207793 510.85970245845726) rotate(0 133.5 17.5)"><text x="0" y="25" font-family="Virgil, Segoe UI Emoji" font-size="28px" fill="#000000" text-anchor="start" style="white-space: pre;" direction="ltr">aggregateBarcodes</text></g><g stroke-linecap="round"><g transform="translate(725.2963570488823 496.4803036543275) rotate(0 330.9336312681954 -2.314672559796122)"><path d="M0.31 -0.12 C110.64 -0.78, 552.26 -3.73, 662.85 -4.51 M-0.98 -1.23 C109.09 -1.69, 551.02 -2.82, 661.76 -3.27" stroke="#000000" stroke-width="1" fill="none"></path></g><g transform="translate(725.2963570488823 496.4803036543275) rotate(0 330.9336312681954 -2.314672559796122)"><path d="M633.4 6.64 C643.2 4.35, 653.22 -0.15, 659.79 -4.42 M633.57 6.97 C642.16 3.33, 651.17 1.4, 661.44 -2.78" stroke="#000000" stroke-width="1" fill="none"></path></g><g transform="translate(725.2963570488823 496.4803036543275) rotate(0 330.9336312681954 -2.314672559796122)"><path d="M633.33 -13.88 C643.06 -8.52, 653.11 -5.37, 659.79 -4.42 M633.51 -13.56 C642.02 -10.64, 651.06 -6.03, 661.44 -2.78" stroke="#000000" stroke-width="1" fill="none"></path></g></g><g stroke-linecap="round"><g transform="translate(1306.3026728505379 579.9354619213128) rotate(0 -283.2795449291121 3.406018555730583)"><path d="M-0.5 -0.08 C-95.06 1.11, -472.74 5.34, -567.26 6.35 M1.44 -1.17 C-93.25 0.32, -473.03 6.58, -568 7.98" stroke="#000000" stroke-width="1" fill="none"></path></g><g transform="translate(1306.3026728505379 579.9354619213128) rotate(0 -283.2795449291121 3.406018555730583)"><path d="M-540.11 -2.04 C-548.35 0.53, -557.48 5.18, -568.18 7.23 M-540.93 -3.55 C-550.37 0.06, -560.75 4.88, -567.6 8.97" stroke="#000000" stroke-width="1" fill="none"></path></g><g transform="translate(1306.3026728505379 579.9354619213128) rotate(0 -283.2795449291121 3.406018555730583)"><path d="M-539.78 18.48 C-547.98 14.75, -557.21 13.11, -568.18 7.23 M-540.61 16.97 C-549.96 13.34, -560.45 10.93, -567.6 8.97" stroke="#000000" stroke-width="1" fill="none"></path></g></g><g transform="translate(1014.9259770711263 448.1190883091517) rotate(0 153 17.5)"><text x="0" y="25" font-family="Virgil, Segoe UI Emoji" font-size="28px" fill="#000000" text-anchor="start" style="white-space: pre;" direction="ltr">barcodes: List&lt;String&gt;</text></g><g transform="translate(775.889044019911 530.34133765811) rotate(0 267.5 17.5)"><text x="0" y="25" font-family="Virgil, Segoe UI Emoji" font-size="28px" fill="#000000" text-anchor="start" style="white-space: pre;" direction="ltr">barcodeCountList: List&lt;BarcodeCount&gt;</text></g><g stroke-linecap="round" transform="translate(1338.259106953939 685.2857142857142) rotate(0 191 290.59259033203125)"><path d="M0.21 0.08 C83.56 -1.11, 166.36 -2.55, 383.14 1.1 M-0.47 -0.52 C113.1 -0.35, 225.49 0.13, 382.49 -0.33 M381.89 -0.17 C380.59 145.26, 380.19 289.21, 381.93 581.15 M381.79 0.23 C383.92 131.72, 383.69 262.87, 382.21 581.29 M381.17 580.9 C241.98 582.5, 100.43 583.56, 0.52 580.34 M382.49 580.86 C279.53 580.23, 177.96 579.28, -0.35 580.81 M-0.3 580.59 C-1.7 418.05, -1.79 256.39, 0.62 0.19 M0.02 580.92 C2.2 404.11, 2.54 227.93, 0.33 0.37" stroke="#000000" stroke-width="1" fill="none"></path></g><g stroke-linecap="round"><g transform="translate(744.6393163417723 796.1779535646288) rotate(0 290.5425292606364 -6.26884708997045)"><path d="M0 1.13 C97.28 -1.19, 485.47 -11.3, 582.55 -13.66 M-1.46 0.67 C95.73 -1.45, 484.23 -9.43, 581.37 -12.05" stroke="#000000" stroke-width="1" fill="none"></path></g><g transform="translate(744.6393163417723 796.1779535646288) rotate(0 290.5425292606364 -6.26884708997045)"><path d="M555.3 -1.86 C559.35 -4.25, 566.02 -4.08, 583.16 -11.42 M553.62 -1.87 C565.35 -6.13, 574.54 -10.02, 580.82 -11.77" stroke="#000000" stroke-width="1" fill="none"></path></g><g transform="translate(744.6393163417723 796.1779535646288) rotate(0 290.5425292606364 -6.26884708997045)"><path d="M554.83 -22.37 C559.01 -20.59, 565.79 -16.24, 583.16 -11.42 M553.14 -22.38 C564.86 -18.66, 574.24 -14.58, 580.82 -11.77" stroke="#000000" stroke-width="1" fill="none"></path></g></g><g stroke-linecap="round"><g transform="translate(1320.712694813044 1224.4741631918373) rotate(0 -293.5438943447684 -9.443773659832573)"><path d="M-0.24 0.22 C-98.04 -2.82, -488.72 -15.93, -586.46 -19.1 M-1.82 -0.72 C-99.72 -3.49, -489.33 -14.9, -586.85 -17.69" stroke="#000000" stroke-width="1" fill="none"></path></g><g transform="translate(1320.712694813044 1224.4741631918373) rotate(0 -293.5438943447684 -9.443773659832573)"><path d="M-558.01 -25.36 C-568.24 -22.61, -577.16 -22.09, -586.65 -16.05 M-558.48 -27.74 C-564.78 -24.58, -569.63 -22.21, -587.04 -17.48" stroke="#000000" stroke-width="1" fill="none"></path></g><g transform="translate(1320.712694813044 1224.4741631918373) rotate(0 -293.5438943447684 -9.443773659832573)"><path d="M-558.61 -4.85 C-568.49 -8.86, -577.22 -15.12, -586.65 -16.05 M-559.08 -7.23 C-565.32 -8.44, -570.04 -10.43, -587.04 -17.48" stroke="#000000" stroke-width="1" fill="none"></path></g></g><g transform="translate(732.9257329305013 727.2857295445033) rotate(0 267.5 17.5)"><text x="0" y="25" font-family="Virgil, Segoe UI Emoji" font-size="28px" fill="#000000" text-anchor="start" style="white-space: pre;" direction="ltr">barcodeCountList: List&lt;BarcodeCount&gt;</text></g><g transform="translate(1357.629508972168 970.4153868660094) rotate(0 166.5 17.5)"><text x="0" y="25" font-family="Virgil, Segoe UI Emoji" font-size="28px" fill="#000000" text-anchor="start" style="white-space: pre;" direction="ltr">generateReceiptSummary</text></g><g transform="translate(958.2593510945641 1155.6744946676586) rotate(0 152 17.5)"><text x="0" y="25" font-family="Virgil, Segoe UI Emoji" font-size="28px" fill="#000000" text-anchor="start" style="white-space: pre;" direction="ltr">receiptSummary: string</text></g><g stroke-linecap="round" transform="translate(2260.9167166815864 686.9801943339999) rotate(0 201.3751220703125 50.33331298828128)"><path d="M-0.44 -0.36 C90.66 0.58, 181.58 0.9, 403.22 -0.46 M0.56 -0.18 C105.02 0.75, 209.24 0.96, 402.42 0.12 M404.22 -0.55 C402.55 20.95, 403.05 41.38, 401.93 102.65 M402.95 0.66 C403.59 38.2, 403.33 75.81, 403.06 100.77 M402.49 100.7 C245.47 101.88, 87.24 102.61, -1.05 101.22 M402.48 100.56 C297.05 102.01, 192.11 102.29, -0.33 100.34 M-0.99 102.54 C-2.24 65.33, 0.7 31.66, -0.18 -0.31 M0.81 100.32 C-0.1 75.92, 0.33 49.56, -0.57 0.42" stroke="#000000" stroke-width="1" fill="none"></path></g><g transform="translate(2269.453846401638 713.878218151274) rotate(0 198 17.5)"><text x="0" y="25" font-family="Virgil, Segoe UI Emoji" font-size="28px" fill="#000000" text-anchor="start" style="white-space: pre;" direction="ltr">getBarcodeGroupListFromDB</text></g><g stroke-linecap="round"><g transform="translate(1745.4257634480796 710.1260855875304) rotate(0 250.3610730671278 3.448705603448161)"><path d="M-0.68 -0.44 C82.58 0.77, 415.63 5.99, 499.13 7.08 M1.16 -1.71 C84.84 -0.29, 418.31 7.18, 501.4 8.61" stroke="#000000" stroke-width="1" fill="none"></path></g><g transform="translate(1745.4257634480796 710.1260855875304) rotate(0 250.3610730671278 3.448705603448161)"><path d="M472.28 16.92 C480.52 16.45, 486.36 12.72, 499.44 8.48 M473.34 17.39 C479.01 16.84, 485.2 15.19, 501.13 8.48" stroke="#000000" stroke-width="1" fill="none"></path></g><g transform="translate(1745.4257634480796 710.1260855875304) rotate(0 250.3610730671278 3.448705603448161)"><path d="M472.69 -3.6 C480.8 1.37, 486.53 3.08, 499.44 8.48 M473.76 -3.13 C479.34 0.52, 485.45 3.07, 501.13 8.48" stroke="#000000" stroke-width="1" fill="none"></path></g></g><g transform="translate(1732.4257939656577 657.6191035679408) rotate(0 267.5 17.5)"><text x="0" y="25" font-family="Virgil, Segoe UI Emoji" font-size="28px" fill="#000000" text-anchor="start" style="white-space: pre;" direction="ltr">barcodeCountList: List&lt;BarcodeCount&gt;</text></g><g stroke-linecap="round"><g transform="translate(2252.103295297269 796.0421837286478) rotate(0 -254.63092267711386 2.94806973897596)"><path d="M0.92 0.62 C-84.07 1.53, -424.07 4.11, -509.09 4.88 M-0.05 -0.1 C-85.31 0.99, -425.17 4.92, -510.18 5.99" stroke="#000000" stroke-width="1" fill="none"></path></g><g transform="translate(2252.103295297269 796.0421837286478) rotate(0 -254.63092267711386 2.94806973897596)"><path d="M-481.08 -5.07 C-494.02 -1.05, -503.92 4.58, -509.97 7.9 M-482.3 -4.43 C-492.31 -1.53, -500.86 1.72, -509.28 5.88" stroke="#000000" stroke-width="1" fill="none"></path></g><g transform="translate(2252.103295297269 796.0421837286478) rotate(0 -254.63092267711386 2.94806973897596)"><path d="M-480.84 15.45 C-493.77 11.79, -503.76 9.74, -509.97 7.9 M-482.05 16.08 C-492.15 12.24, -500.78 8.74, -509.28 5.88" stroke="#000000" stroke-width="1" fill="none"></path></g></g><g transform="translate(1724.259351094564 738.7857142857142) rotate(0 269 17.5)"><text x="0" y="25" font-family="Virgil, Segoe UI Emoji" font-size="28px" fill="#000000" text-anchor="start" style="white-space: pre;" direction="ltr">barcodeGroupList: List&lt;BarcodeGroup&gt;</text></g><g stroke-linecap="round" transform="translate(2286.333454555936 1090.6561095222596) rotate(0 186.9998779296875 58.58337402343756)"><path d="M-1.2 0.79 C101.26 -2.57, 201.05 -2.09, 374.01 -0.81 M-0.01 -0.44 C114.22 -2.7, 227.67 -2.58, 373.99 0.54 M373.75 -1.76 C373.5 38.08, 375 72.4, 373.14 116.06 M373.94 -0.81 C375.12 45.02, 374.24 88.4, 374.72 116.25 M373.24 116.95 C278.8 115.92, 182.6 116.66, -0.96 117.58 M374.12 116.66 C239.23 118.25, 103.19 119.08, -0.03 117.45 M1.3 116.45 C-0.71 92.03, 1.39 64.62, -1.62 0.7 M0.44 117.06 C-1.26 78.58, -1.33 39.88, -0.15 0.36" stroke="#000000" stroke-width="1" fill="none"></path></g><g stroke-linecap="round"><g transform="translate(2263.2935486862675 1120.3033497653064) rotate(0 -257.0956095643958 -0.5929635447644159)"><path d="M0.31 0.88 C-85.27 0.98, -427.83 -0.06, -513.62 -0.21 M-0.99 0.3 C-86.7 0.11, -428.75 -1.69, -514.5 -2.07" stroke="#000000" stroke-width="1" fill="none"></path></g><g transform="translate(2263.2935486862675 1120.3033497653064) rotate(0 -257.0956095643958 -0.5929635447644159)"><path d="M-484.79 -11.99 C-493.63 -10.31, -501.43 -6.99, -512.85 -3.6 M-485.8 -11.46 C-494.59 -9.3, -502.52 -7.23, -515.03 -1.97" stroke="#000000" stroke-width="1" fill="none"></path></g><g transform="translate(2263.2935486862675 1120.3033497653064) rotate(0 -257.0956095643958 -0.5929635447644159)"><path d="M-484.89 8.53 C-493.56 4.3, -501.33 1.72, -512.85 -3.6 M-485.9 9.06 C-494.81 5.45, -502.71 1.75, -515.03 -1.97" stroke="#000000" stroke-width="1" fill="none"></path></g></g><g stroke-linecap="round"><g transform="translate(2265.0688240599716 1196.5512672039729) rotate(0 -257.5381943425035 4.939061264333361)"><path d="M-0.63 0.13 C-86.59 2.06, -430.45 9.03, -516.32 10.72 M1.24 -0.85 C-84.27 0.76, -427.6 6.65, -513.91 8.71" stroke="#000000" stroke-width="1" fill="none"></path></g><g transform="translate(2265.0688240599716 1196.5512672039729) rotate(0 -257.5381943425035 4.939061264333361)"><path d="M-485.72 -3.09 C-492.82 0.37, -500.7 5.1, -514.69 7.53 M-485.46 -2.71 C-491.6 0.26, -497.17 2.62, -513.6 9.33" stroke="#000000" stroke-width="1" fill="none"></path></g><g transform="translate(2265.0688240599716 1196.5512672039729) rotate(0 -257.5381943425035 4.939061264333361)"><path d="M-485.31 17.43 C-492.37 15.64, -500.36 15.14, -514.69 7.53 M-485.05 17.81 C-491.47 16.33, -497.13 14.26, -513.6 9.33" stroke="#000000" stroke-width="1" fill="none"></path></g></g><g transform="translate(1392.8774943276057 113.44967954120963) rotate(0 112.5 70)"><text x="0" y="25" font-family="Virgil, Segoe UI Emoji" font-size="28px" fill="#000000" text-anchor="start" style="white-space: pre;" direction="ltr">BarcodeCount {</text><text x="0" y="60" font-family="Virgil, Segoe UI Emoji" font-size="28px" fill="#000000" text-anchor="start" style="white-space: pre;" direction="ltr"> barcode: string,</text><text x="0" y="95" font-family="Virgil, Segoe UI Emoji" font-size="28px" fill="#000000" text-anchor="start" style="white-space: pre;" direction="ltr"> quantity: int,</text><text x="0" y="130" font-family="Virgil, Segoe UI Emoji" font-size="28px" fill="#000000" text-anchor="start" style="white-space: pre;" direction="ltr">}</text></g><g transform="translate(1911.2962604098852 1160.4711068774027) rotate(0 65.5 17.5)"><text x="0" y="25" font-family="Virgil, Segoe UI Emoji" font-size="28px" fill="#000000" text-anchor="start" style="white-space: pre;" direction="ltr">total: int</text></g><g stroke-linecap="round" transform="translate(2246.0212427775064 898.5898861355253) rotate(0 265.1853264702695 57.77777777777766)"><path d="M0.47 -0.69 C185.09 -0.75, 370.05 -1, 530.16 -0.64 M0.03 -0.21 C195.06 1.09, 388.99 0.92, 530.5 -0.36 M530.58 0.66 C530.01 42.85, 531.37 84.19, 528.65 114.58 M531.14 -0.99 C531.14 41.79, 531.05 83.16, 531.18 115.43 M529.59 115.8 C368.84 114.07, 208.23 113.58, -0.7 116.16 M530.09 115.57 C368.4 116.9, 206.96 117.02, -0.19 115.45 M-1.89 116.51 C1.79 78.45, 0.16 42.02, 1.4 -1.56 M-0.67 114.64 C1.24 71.21, -0.23 27.19, -0.49 -0.04" stroke="#000000" stroke-width="1" fill="none"></path></g><g transform="translate(2277.304003155421 944.8729904417006) rotate(0 239.5 17.5)"><text x="0" y="25" font-family="Virgil, Segoe UI Emoji" font-size="28px" fill="#000000" text-anchor="start" style="white-space: pre;" direction="ltr">generateBarcodeGroupListSummary</text></g><g stroke-linecap="round"><g transform="translate(1735.4258956909184 904.1707145883288) rotate(0 247.1030609816172 -0.3380766478175019)"><path d="M0.3 -0.38 C82.93 -0.58, 412.68 -0.33, 495.21 -0.44 M-1 -1.63 C81.47 -1.71, 411.38 0.72, 493.98 0.95" stroke="#000000" stroke-width="1" fill="none"></path></g><g transform="translate(1735.4258956909184 904.1707145883288) rotate(0 247.1030609816172 -0.3380766478175019)"><path d="M465.1 10.16 C472.36 8, 478.42 6.93, 494.75 -0.22 M466.37 10.47 C474.81 7.82, 482.54 3.97, 494.78 1.31" stroke="#000000" stroke-width="1" fill="none"></path></g><g transform="translate(1735.4258956909184 904.1707145883288) rotate(0 247.1030609816172 -0.3380766478175019)"><path d="M465.2 -10.36 C472.57 -7.34, 478.61 -3.23, 494.75 -0.22 M466.48 -10.06 C474.89 -6.25, 482.58 -3.64, 494.78 1.31" stroke="#000000" stroke-width="1" fill="none"></path></g></g><g transform="translate(1743.0185334947378 936.3411681160095) rotate(0 225 17.5)"><text x="0" y="25" font-family="Virgil, Segoe UI Emoji" font-size="28px" fill="#000000" text-anchor="start" style="white-space: pre;" direction="ltr">barcodeGroupListSummary: string</text></g><g transform="translate(1685.4722388131286 105.99052719842851) rotate(0 133.5 105)"><text x="0" y="25" font-family="Virgil, Segoe UI Emoji" font-size="28px" fill="#000000" text-anchor="start" style="white-space: pre;" direction="ltr">BarcodeGroup {</text><text x="0" y="60" font-family="Virgil, Segoe UI Emoji" font-size="28px" fill="#000000" text-anchor="start" style="white-space: pre;" direction="ltr">    barcode: string,</text><text x="0" y="95" font-family="Virgil, Segoe UI Emoji" font-size="28px" fill="#000000" text-anchor="start" style="white-space: pre;" direction="ltr">    quantity: int,</text><text x="0" y="130" font-family="Virgil, Segoe UI Emoji" font-size="28px" fill="#000000" text-anchor="start" style="white-space: pre;" direction="ltr">    price: int,</text><text x="0" y="165" font-family="Virgil, Segoe UI Emoji" font-size="28px" fill="#000000" text-anchor="start" style="white-space: pre;" direction="ltr">    name: string</text><text x="0" y="200" font-family="Virgil, Segoe UI Emoji" font-size="28px" fill="#000000" text-anchor="start" style="white-space: pre;" direction="ltr">}</text></g><g transform="translate(1750.472282409668 849.8597092401413) rotate(0 265.5000000000001 17.5)"><text x="0" y="25" font-family="Virgil, Segoe UI Emoji" font-size="28px" fill="#000000" text-anchor="start" style="white-space: pre;" direction="ltr">barcodeGroupList: List&lt;barcodeGroup&gt;</text></g><g stroke-linecap="round"><g transform="translate(2234.8175277709965 995.8810765787264) rotate(0 -248.11002761162808 0.7379950424179356)"><path d="M1.08 -0.73 C-81.88 -0.25, -414.5 2.06, -497.3 2.21 M0.19 1.5 C-82.44 1.71, -412.34 0.65, -495.04 0.55" stroke="#000000" stroke-width="1" fill="none"></path></g><g transform="translate(2234.8175277709965 995.8810765787264) rotate(0 -248.11002761162808 0.7379950424179356)"><path d="M-468.05 -11.1 C-474.98 -4.7, -487.93 -3.95, -495.36 -0.24 M-467.49 -10.27 C-474.03 -7.87, -480.74 -5.54, -495.49 -0.07" stroke="#000000" stroke-width="1" fill="none"></path></g><g transform="translate(2234.8175277709965 995.8810765787264) rotate(0 -248.11002761162808 0.7379950424179356)"><path d="M-468.1 9.42 C-474.89 8.87, -487.83 2.67, -495.36 -0.24 M-467.54 10.25 C-474.05 7.81, -480.75 5.31, -495.49 -0.07" stroke="#000000" stroke-width="1" fill="none"></path></g></g><g transform="translate(1739.5555648803706 1064.8597855340868) rotate(0 265.4999999999999 17.5)"><text x="0" y="25" font-family="Virgil, Segoe UI Emoji" font-size="28px" fill="#000000" text-anchor="start" style="white-space: pre;" direction="ltr">barcodeGroupList: List&lt;barcodeGroup&gt;</text></g><g transform="translate(2341.7222824096684 1139.8597855340868) rotate(0 104.5 17.5)"><text x="0" y="25" font-family="Virgil, Segoe UI Emoji" font-size="28px" fill="#000000" text-anchor="start" style="white-space: pre;" direction="ltr">calculateTotal</text></g><g stroke-linecap="round" transform="translate(2827.793928963798 697.5383787609283) rotate(0 158.92852783203125 37.08332061767578)"><path d="M0.29 -0.55 C124.34 1.5, 245.71 0.67, 317.91 -0.71 M0.43 -0.43 C86.87 -0.9, 173.6 -0.84, 318.41 0.16 M316.39 0.64 C319.22 26.49, 318.37 50.89, 317.39 73.96 M318.7 -0.92 C318.88 15.16, 317.59 32.51, 318.29 73.17 M316.56 74.65 C233.87 73.39, 149.05 75.45, -0.64 75.32 M317.87 74.22 C247.09 75.01, 176.26 74.97, 0.69 74.32 M-0.6 72.22 C-0.23 51.37, -0.35 26.11, 0.4 1.02 M-0.52 73.33 C0.14 47.24, -1.29 18.68, 0.13 0.91" stroke="#000000" stroke-width="1" fill="none"></path></g><g transform="translate(2900.722456795829 717.121699378604) rotate(0 86 17.5)"><text x="86" y="25" font-family="Virgil, Segoe UI Emoji" font-size="28px" fill="#000000" text-anchor="middle" style="white-space: pre;" direction="ltr">loadAllItems</text></g><g stroke-linecap="round"><g transform="translate(2820.2937109810964 756.7538465546364) rotate(0 -72.88530081077079 -3.146293126829164)"><path d="M-0.31 0.16 C-24.61 -0.48, -122.58 -3.84, -146.98 -4.57 M1.72 -0.8 C-22.56 -1.74, -122.72 -5.57, -147.49 -6.45" stroke="#000000" stroke-width="1" fill="none"></path></g><g transform="translate(2820.2937109810964 756.7538465546364) rotate(0 -72.88530081077079 -3.146293126829164)"><path d="M-118.67 -14.29 C-123.96 -12.06, -129.07 -12.55, -147.69 -5.57 M-118.04 -15.02 C-127.87 -12.51, -135.63 -9.99, -147.29 -7.31" stroke="#000000" stroke-width="1" fill="none"></path></g><g transform="translate(2820.2937109810964 756.7538465546364) rotate(0 -72.88530081077079 -3.146293126829164)"><path d="M-119.44 6.22 C-124.44 4.34, -129.39 -0.25, -147.69 -5.57 M-118.81 5.49 C-128.56 1.79, -136.1 -1.9, -147.29 -7.31" stroke="#000000" stroke-width="1" fill="none"></path></g></g><g transform="translate(2010.7697851998464 114.02644856770846) rotate(0 112.5 87.5)"><text x="0" y="25" font-family="Virgil, Segoe UI Emoji" font-size="28px" fill="#000000" text-anchor="start" style="white-space: pre;" direction="ltr">Item: {</text><text x="0" y="60" font-family="Virgil, Segoe UI Emoji" font-size="28px" fill="#000000" text-anchor="start" style="white-space: pre;" direction="ltr"> barcode: string,</text><text x="0" y="95" font-family="Virgil, Segoe UI Emoji" font-size="28px" fill="#000000" text-anchor="start" style="white-space: pre;" direction="ltr"> name: string,</text><text x="0" y="130" font-family="Virgil, Segoe UI Emoji" font-size="28px" fill="#000000" text-anchor="start" style="white-space: pre;" direction="ltr"> price: int</text><text x="0" y="165" font-family="Virgil, Segoe UI Emoji" font-size="28px" fill="#000000" text-anchor="start" style="white-space: pre;" direction="ltr">}</text></g><g transform="translate(2666.9604939052037 701.6455543154761) rotate(0 75.5 17.5)"><text x="0" y="25" font-family="Virgil, Segoe UI Emoji" font-size="28px" fill="#000000" text-anchor="start" style="white-space: pre;" direction="ltr">List&lt;Item&gt;</text></g></svg>